<svg width="196" height="65" viewBox="0 0 196 65" fill="none" xmlns="http://www.w3.org/2000/svg">
<rect x="1.5" y="1.5" width="193" height="62" rx="31" stroke="url(#paint0_linear_200_75)" stroke-width="3"/>
<path d="M36.6211 27.0605C35.625 27.0605 34.7786 27.3047 34.082 27.793C33.3854 28.2747 32.8581 28.9421 32.5 29.7949C32.1419 30.6478 31.9629 31.6276 31.9629 32.7344C31.9629 33.9388 32.1419 34.9837 32.5 35.8691C32.8581 36.7546 33.3822 37.4349 34.0723 37.9102C34.7624 38.3854 35.5924 38.623 36.5625 38.623C37.6693 38.623 38.5807 38.3171 39.2969 37.7051C40.0195 37.0866 40.5208 36.1914 40.8008 35.0195L42.6465 35.459C42.4251 36.4486 42.0345 37.3047 41.4746 38.0273C40.9212 38.7435 40.2279 39.2936 39.3945 39.6777C38.5677 40.0553 37.6465 40.2441 36.6309 40.2441C35.2507 40.2441 34.0625 39.9447 33.0664 39.3457C32.0768 38.7467 31.3184 37.8874 30.791 36.7676C30.2637 35.6413 30 34.3001 30 32.7441C30 31.2598 30.2799 29.9674 30.8398 28.8672C31.4062 27.7604 32.1908 26.9141 33.1934 26.3281C34.2025 25.7357 35.3516 25.4395 36.6406 25.4395C38.1315 25.4395 39.3685 25.7975 40.3516 26.5137C41.3411 27.2233 42.0247 28.2585 42.4023 29.6191L40.5469 30.0586C40.2474 29.0495 39.7721 28.2975 39.1211 27.8027C38.4701 27.3079 37.6367 27.0605 36.6211 27.0605ZM44.1016 34.8242C44.1016 33.6979 44.3034 32.7279 44.707 31.9141C45.1107 31.1003 45.6771 30.4785 46.4062 30.0488C47.1419 29.6191 47.9915 29.4043 48.9551 29.4043C49.9251 29.4043 50.7747 29.6126 51.5039 30.0293C52.2331 30.446 52.7995 31.0612 53.2031 31.875C53.6133 32.6823 53.8184 33.6589 53.8184 34.8047C53.8184 35.944 53.6133 36.9238 53.2031 37.7441C52.793 38.5579 52.2201 39.1797 51.4844 39.6094C50.7552 40.0326 49.9121 40.2441 48.9551 40.2441C48.0046 40.2441 47.1647 40.0391 46.4355 39.6289C45.7064 39.2122 45.1335 38.597 44.7168 37.7832C44.3066 36.9694 44.1016 35.9831 44.1016 34.8242ZM48.9453 30.8496C48.3594 30.8496 47.8353 31.0026 47.373 31.3086C46.9173 31.6081 46.556 32.0573 46.2891 32.6562C46.0286 33.2487 45.8984 33.9714 45.8984 34.8242C45.8984 35.6771 46.0286 36.403 46.2891 37.002C46.5495 37.5944 46.9076 38.0436 47.3633 38.3496C47.8255 38.6491 48.3561 38.7988 48.9551 38.7988C49.5736 38.7988 50.1139 38.6426 50.5762 38.3301C51.0384 38.0176 51.3932 37.5618 51.6406 36.9629C51.8945 36.3639 52.0215 35.6445 52.0215 34.8047C52.0215 33.9583 51.8913 33.2389 51.6309 32.6465C51.3704 32.054 51.0091 31.6081 50.5469 31.3086C50.0846 31.0026 49.5508 30.8496 48.9453 30.8496ZM62.5781 40V33.2227C62.5781 32.4674 62.3893 31.8945 62.0117 31.5039C61.6341 31.1133 61.1003 30.918 60.4102 30.918C59.5378 30.918 58.8574 31.1816 58.3691 31.709C57.8874 32.2363 57.6465 33.0762 57.6465 34.2285V40H55.8887V29.6387H57.5293V31.084C57.8743 30.5632 58.3203 30.153 58.8672 29.8535C59.4206 29.554 60.0326 29.4043 60.7031 29.4043C61.901 29.4043 62.806 29.7135 63.418 30.332C64.0299 30.9505 64.3359 31.8359 64.3359 32.9883V40H62.5781ZM73.7109 40V33.2227C73.7109 32.4674 73.5221 31.8945 73.1445 31.5039C72.7669 31.1133 72.2331 30.918 71.543 30.918C70.6706 30.918 69.9902 31.1816 69.502 31.709C69.0202 32.2363 68.7793 33.0762 68.7793 34.2285V40H67.0215V29.6387H68.6621V31.084C69.0072 30.5632 69.4531 30.153 70 29.8535C70.5534 29.554 71.1654 29.4043 71.8359 29.4043C73.0339 29.4043 73.9388 29.7135 74.5508 30.332C75.1628 30.9505 75.4688 31.8359 75.4688 32.9883V40H73.7109ZM82.4609 38.7988C83.125 38.7988 83.6979 38.6035 84.1797 38.2129C84.668 37.8223 85.0065 37.3047 85.1953 36.6602L86.9141 36.9238C86.6211 37.972 86.071 38.7891 85.2637 39.375C84.4629 39.9544 83.4993 40.2441 82.373 40.2441C81.3835 40.2441 80.5208 40.026 79.7852 39.5898C79.056 39.1536 78.4928 38.5352 78.0957 37.7344C77.6986 36.9271 77.5 35.9831 77.5 34.9023C77.5 33.7891 77.6953 32.819 78.0859 31.9922C78.4766 31.1654 79.0365 30.5273 79.7656 30.0781C80.5013 29.6289 81.3639 29.4043 82.3535 29.4043C83.3105 29.4043 84.1439 29.6191 84.8535 30.0488C85.5632 30.472 86.11 31.097 86.4941 31.9238C86.8783 32.7507 87.0703 33.7435 87.0703 34.9023V35.2637H79.3164C79.3555 36.0059 79.5085 36.6439 79.7754 37.1777C80.0423 37.7051 80.4036 38.1087 80.8594 38.3887C81.3216 38.6621 81.8555 38.7988 82.4609 38.7988ZM82.334 30.8398C81.8132 30.8398 81.3444 30.9635 80.9277 31.2109C80.5111 31.4583 80.166 31.8066 79.8926 32.2559C79.6257 32.7051 79.4531 33.2259 79.375 33.8184H85.2148C85.1107 32.8613 84.8079 32.1257 84.3066 31.6113C83.8118 31.097 83.1543 30.8398 82.334 30.8398ZM93.4473 30.8496C92.4251 30.8496 91.6374 31.1947 91.084 31.8848C90.5306 32.5749 90.2539 33.5482 90.2539 34.8047C90.2539 35.5859 90.3776 36.2793 90.625 36.8848C90.8724 37.4837 91.2305 37.9525 91.6992 38.291C92.168 38.6296 92.7181 38.7988 93.3496 38.7988C94.0983 38.7988 94.7135 38.5677 95.1953 38.1055C95.6771 37.6432 95.9766 37.0085 96.0938 36.2012L97.832 36.4648C97.7214 37.2331 97.4544 37.9036 97.0312 38.4766C96.6081 39.043 96.071 39.4792 95.4199 39.7852C94.7689 40.0911 94.056 40.2441 93.2812 40.2441C92.3242 40.2441 91.4811 40.026 90.752 39.5898C90.0228 39.1471 89.4564 38.5189 89.0527 37.7051C88.6556 36.8913 88.457 35.9342 88.457 34.834C88.457 33.6751 88.6556 32.6888 89.0527 31.875C89.4564 31.0612 90.026 30.446 90.7617 30.0293C91.4974 29.6126 92.3665 29.4043 93.3691 29.4043C94.1048 29.4043 94.7754 29.5345 95.3809 29.7949C95.9863 30.0488 96.4844 30.4232 96.875 30.918C97.2721 31.4062 97.5326 31.9922 97.6562 32.6758L95.957 32.9297C95.7943 32.2721 95.4915 31.7611 95.0488 31.3965C94.6061 31.0319 94.0723 30.8496 93.4473 30.8496ZM101.621 29.6387H103.584V30.9961H101.621V37.2754C101.621 37.6595 101.654 37.946 101.719 38.1348C101.79 38.3236 101.895 38.4505 102.031 38.5156C102.168 38.5742 102.357 38.6035 102.598 38.6035C102.832 38.6035 103.161 38.5612 103.584 38.4766L103.818 39.9414C103.317 40.0586 102.812 40.1172 102.305 40.1172C101.673 40.1172 101.185 40.026 100.84 39.8438C100.501 39.6549 100.251 39.3783 100.088 39.0137C99.9382 38.6621 99.8633 38.0273 99.8633 37.1094V30.9961H98.3789V29.6387H99.8633V27.2559L101.621 25.9961V29.6387ZM119.346 29.9707C119.137 28.929 118.757 28.1836 118.203 27.7344C117.656 27.2852 116.911 27.0605 115.967 27.0605C115.348 27.0605 114.801 27.1517 114.326 27.334C113.851 27.5163 113.48 27.7767 113.213 28.1152C112.946 28.4473 112.812 28.8346 112.812 29.2773C112.812 29.7331 112.933 30.0977 113.174 30.3711C113.415 30.6445 113.783 30.8724 114.277 31.0547C114.779 31.237 115.495 31.429 116.426 31.6309C117.708 31.9108 118.724 32.2331 119.473 32.5977C120.228 32.9622 120.775 33.4147 121.113 33.9551C121.458 34.4889 121.631 35.1562 121.631 35.957C121.631 36.7643 121.406 37.4935 120.957 38.1445C120.514 38.7956 119.899 39.3099 119.111 39.6875C118.324 40.0586 117.435 40.2441 116.445 40.2441C114.733 40.2441 113.363 39.8438 112.334 39.043C111.312 38.2422 110.69 37.0736 110.469 35.5371L112.334 35.0977C112.464 36.2695 112.868 37.1517 113.545 37.7441C114.229 38.3301 115.169 38.623 116.367 38.623C116.992 38.623 117.568 38.5221 118.096 38.3203C118.623 38.1185 119.04 37.8385 119.346 37.4805C119.658 37.1159 119.814 36.709 119.814 36.2598C119.814 35.6608 119.668 35.1953 119.375 34.8633C119.082 34.5247 118.646 34.2546 118.066 34.0527C117.585 33.8835 116.885 33.6914 115.967 33.4766C115.42 33.3529 115.036 33.2585 114.814 33.1934C113.818 32.9264 113.04 32.6042 112.48 32.2266C111.927 31.849 111.54 31.4225 111.318 30.9473C111.104 30.4655 110.996 29.8958 110.996 29.2383C110.996 28.5221 111.208 27.8743 111.631 27.2949C112.061 26.7155 112.65 26.263 113.398 25.9375C114.154 25.6055 114.997 25.4395 115.928 25.4395C116.911 25.4395 117.78 25.6022 118.535 25.9277C119.29 26.2533 119.896 26.7253 120.352 27.3438C120.814 27.9622 121.1 28.7012 121.211 29.5605L119.385 29.9707H119.346ZM125.84 38.8184H125.791V43.9648H124.033V29.6387H125.674V30.957H125.713C126.071 30.4557 126.507 30.0716 127.021 29.8047C127.542 29.5378 128.135 29.4043 128.799 29.4043C129.73 29.4043 130.544 29.6257 131.24 30.0684C131.937 30.5111 132.474 31.1426 132.852 31.9629C133.229 32.7767 133.418 33.7305 133.418 34.8242C133.418 35.9049 133.232 36.8555 132.861 37.6758C132.49 38.4896 131.966 39.1211 131.289 39.5703C130.612 40.0195 129.827 40.2441 128.936 40.2441C127.64 40.2441 126.608 39.7689 125.84 38.8184ZM128.643 30.8398C128.044 30.8398 127.52 31.0059 127.07 31.3379C126.621 31.6699 126.276 32.1257 126.035 32.7051C125.794 33.2845 125.674 33.9388 125.674 34.668C125.674 35.5273 125.798 36.2663 126.045 36.8848C126.299 37.5033 126.654 37.9785 127.109 38.3105C127.572 38.6361 128.112 38.7988 128.73 38.7988C129.336 38.7988 129.854 38.6296 130.283 38.291C130.719 37.9525 131.048 37.4837 131.27 36.8848C131.497 36.2858 131.611 35.5957 131.611 34.8145C131.611 33.9876 131.488 33.2747 131.24 32.6758C130.993 32.0768 130.645 31.6211 130.195 31.3086C129.753 30.9961 129.235 30.8398 128.643 30.8398ZM134.824 34.8242C134.824 33.6979 135.026 32.7279 135.43 31.9141C135.833 31.1003 136.4 30.4785 137.129 30.0488C137.865 29.6191 138.714 29.4043 139.678 29.4043C140.648 29.4043 141.497 29.6126 142.227 30.0293C142.956 30.446 143.522 31.0612 143.926 31.875C144.336 32.6823 144.541 33.6589 144.541 34.8047C144.541 35.944 144.336 36.9238 143.926 37.7441C143.516 38.5579 142.943 39.1797 142.207 39.6094C141.478 40.0326 140.635 40.2441 139.678 40.2441C138.727 40.2441 137.887 40.0391 137.158 39.6289C136.429 39.2122 135.856 38.597 135.439 37.7832C135.029 36.9694 134.824 35.9831 134.824 34.8242ZM139.668 30.8496C139.082 30.8496 138.558 31.0026 138.096 31.3086C137.64 31.6081 137.279 32.0573 137.012 32.6562C136.751 33.2487 136.621 33.9714 136.621 34.8242C136.621 35.6771 136.751 36.403 137.012 37.002C137.272 37.5944 137.63 38.0436 138.086 38.3496C138.548 38.6491 139.079 38.7988 139.678 38.7988C140.296 38.7988 140.837 38.6426 141.299 38.3301C141.761 38.0176 142.116 37.5618 142.363 36.9629C142.617 36.3639 142.744 35.6445 142.744 34.8047C142.744 33.9583 142.614 33.2389 142.354 32.6465C142.093 32.054 141.732 31.6081 141.27 31.3086C140.807 31.0026 140.273 30.8496 139.668 30.8496ZM148.438 29.6387H150.4V30.9961H148.438V37.2754C148.438 37.6595 148.47 37.946 148.535 38.1348C148.607 38.3236 148.711 38.4505 148.848 38.5156C148.984 38.5742 149.173 38.6035 149.414 38.6035C149.648 38.6035 149.977 38.5612 150.4 38.4766L150.635 39.9414C150.133 40.0586 149.629 40.1172 149.121 40.1172C148.49 40.1172 148.001 40.026 147.656 39.8438C147.318 39.6549 147.067 39.3783 146.904 39.0137C146.755 38.6621 146.68 38.0273 146.68 37.1094V30.9961H145.195V29.6387H146.68V27.2559L148.438 25.9961V29.6387ZM153.994 27.6758H152.236V25.6836H153.994V27.6758ZM153.994 40H152.236V29.6387H153.994V40ZM160.176 26.9629C159.779 26.9629 159.482 27.028 159.287 27.1582C159.092 27.2819 158.965 27.4512 158.906 27.666C158.854 27.8809 158.828 28.1738 158.828 28.5449V29.6387H160.83V30.9961H158.828V40H157.07V30.9961H155.508V29.6387H157.07V28.4082C157.07 27.3861 157.295 26.6374 157.744 26.1621C158.193 25.6803 158.926 25.4395 159.941 25.4395C160.592 25.4395 161.25 25.5208 161.914 25.6836L161.533 27.1777C161.064 27.0345 160.612 26.9629 160.176 26.9629ZM165.293 35.6152C165.495 36.1751 165.638 36.6016 165.723 36.8945C165.814 37.1875 165.918 37.5684 166.035 38.0371H166.074C166.204 37.4577 166.305 37.0475 166.377 36.8066C166.455 36.5592 166.634 36.0514 166.914 35.2832L168.975 29.6387H170.762L166.562 40.7715C166.224 41.6699 165.898 42.3633 165.586 42.8516C165.273 43.3464 164.938 43.6947 164.58 43.8965C164.222 44.0983 163.796 44.1992 163.301 44.1992C163.118 44.1992 162.881 44.1764 162.588 44.1309C162.295 44.0918 162.044 44.0495 161.836 44.0039L162.197 42.5195C162.471 42.6237 162.734 42.6758 162.988 42.6758C163.366 42.6758 163.675 42.5814 163.916 42.3926C164.163 42.2038 164.362 41.9499 164.512 41.6309C164.668 41.3184 164.811 40.9896 164.941 40.6445C165.072 40.2995 165.15 40.0911 165.176 40.0195L161.24 29.6387H163.135L165.293 35.6152Z" fill="url(#paint1_linear_200_75)"/>
<defs>
<linearGradient id="paint0_linear_200_75" x1="98" y1="3" x2="98" y2="62" gradientUnits="userSpaceOnUse">
<stop stop-color="#EF7CA5"/>
<stop offset="1" stop-color="#8B55F3"/>
</linearGradient>
<linearGradient id="paint1_linear_200_75" x1="100" y1="20" x2="100" y2="44" gradientUnits="userSpaceOnUse">
<stop stop-color="#EF7CA5"/>
<stop offset="1" stop-color="#8B55F3"/>
</linearGradient>
</defs>
</svg>
