<svg width="345" height="142" viewBox="0 0 345 142" fill="none" xmlns="http://www.w3.org/2000/svg">
<rect x="73.5" y="1.5" width="193" height="62" rx="31" fill="#EFEEEA" stroke="url(#paint0_linear_130_89)" stroke-width="3"/>
<path d="M109.121 27.0605C108.125 27.0605 107.279 27.3047 106.582 27.793C105.885 28.2747 105.358 28.9421 105 29.7949C104.642 30.6478 104.463 31.6276 104.463 32.7344C104.463 33.9388 104.642 34.9837 105 35.8691C105.358 36.7546 105.882 37.4349 106.572 37.9102C107.262 38.3854 108.092 38.623 109.062 38.623C110.169 38.623 111.081 38.3171 111.797 37.7051C112.52 37.0866 113.021 36.1914 113.301 35.0195L115.146 35.459C114.925 36.4486 114.535 37.3047 113.975 38.0273C113.421 38.7435 112.728 39.2936 111.895 39.6777C111.068 40.0553 110.146 40.2441 109.131 40.2441C107.751 40.2441 106.562 39.9447 105.566 39.3457C104.577 38.7467 103.818 37.8874 103.291 36.7676C102.764 35.6413 102.5 34.3001 102.5 32.7441C102.5 31.2598 102.78 29.9674 103.34 28.8672C103.906 27.7604 104.691 26.9141 105.693 26.3281C106.702 25.7357 107.852 25.4395 109.141 25.4395C110.632 25.4395 111.868 25.7975 112.852 26.5137C113.841 27.2233 114.525 28.2585 114.902 29.6191L113.047 30.0586C112.747 29.0495 112.272 28.2975 111.621 27.8027C110.97 27.3079 110.137 27.0605 109.121 27.0605ZM116.602 34.8242C116.602 33.6979 116.803 32.7279 117.207 31.9141C117.611 31.1003 118.177 30.4785 118.906 30.0488C119.642 29.6191 120.492 29.4043 121.455 29.4043C122.425 29.4043 123.275 29.6126 124.004 30.0293C124.733 30.446 125.299 31.0612 125.703 31.875C126.113 32.6823 126.318 33.6589 126.318 34.8047C126.318 35.944 126.113 36.9238 125.703 37.7441C125.293 38.5579 124.72 39.1797 123.984 39.6094C123.255 40.0326 122.412 40.2441 121.455 40.2441C120.505 40.2441 119.665 40.0391 118.936 39.6289C118.206 39.2122 117.633 38.597 117.217 37.7832C116.807 36.9694 116.602 35.9831 116.602 34.8242ZM121.445 30.8496C120.859 30.8496 120.335 31.0026 119.873 31.3086C119.417 31.6081 119.056 32.0573 118.789 32.6562C118.529 33.2487 118.398 33.9714 118.398 34.8242C118.398 35.6771 118.529 36.403 118.789 37.002C119.049 37.5944 119.408 38.0436 119.863 38.3496C120.326 38.6491 120.856 38.7988 121.455 38.7988C122.074 38.7988 122.614 38.6426 123.076 38.3301C123.538 38.0176 123.893 37.5618 124.141 36.9629C124.395 36.3639 124.521 35.6445 124.521 34.8047C124.521 33.9583 124.391 33.2389 124.131 32.6465C123.87 32.054 123.509 31.6081 123.047 31.3086C122.585 31.0026 122.051 30.8496 121.445 30.8496ZM135.078 40V33.2227C135.078 32.4674 134.889 31.8945 134.512 31.5039C134.134 31.1133 133.6 30.918 132.91 30.918C132.038 30.918 131.357 31.1816 130.869 31.709C130.387 32.2363 130.146 33.0762 130.146 34.2285V40H128.389V29.6387H130.029V31.084C130.374 30.5632 130.82 30.153 131.367 29.8535C131.921 29.554 132.533 29.4043 133.203 29.4043C134.401 29.4043 135.306 29.7135 135.918 30.332C136.53 30.9505 136.836 31.8359 136.836 32.9883V40H135.078ZM146.211 40V33.2227C146.211 32.4674 146.022 31.8945 145.645 31.5039C145.267 31.1133 144.733 30.918 144.043 30.918C143.171 30.918 142.49 31.1816 142.002 31.709C141.52 32.2363 141.279 33.0762 141.279 34.2285V40H139.521V29.6387H141.162V31.084C141.507 30.5632 141.953 30.153 142.5 29.8535C143.053 29.554 143.665 29.4043 144.336 29.4043C145.534 29.4043 146.439 29.7135 147.051 30.332C147.663 30.9505 147.969 31.8359 147.969 32.9883V40H146.211ZM154.961 38.7988C155.625 38.7988 156.198 38.6035 156.68 38.2129C157.168 37.8223 157.507 37.3047 157.695 36.6602L159.414 36.9238C159.121 37.972 158.571 38.7891 157.764 39.375C156.963 39.9544 155.999 40.2441 154.873 40.2441C153.883 40.2441 153.021 40.026 152.285 39.5898C151.556 39.1536 150.993 38.5352 150.596 37.7344C150.199 36.9271 150 35.9831 150 34.9023C150 33.7891 150.195 32.819 150.586 31.9922C150.977 31.1654 151.536 30.5273 152.266 30.0781C153.001 29.6289 153.864 29.4043 154.854 29.4043C155.811 29.4043 156.644 29.6191 157.354 30.0488C158.063 30.472 158.61 31.097 158.994 31.9238C159.378 32.7507 159.57 33.7435 159.57 34.9023V35.2637H151.816C151.855 36.0059 152.008 36.6439 152.275 37.1777C152.542 37.7051 152.904 38.1087 153.359 38.3887C153.822 38.6621 154.355 38.7988 154.961 38.7988ZM154.834 30.8398C154.313 30.8398 153.844 30.9635 153.428 31.2109C153.011 31.4583 152.666 31.8066 152.393 32.2559C152.126 32.7051 151.953 33.2259 151.875 33.8184H157.715C157.611 32.8613 157.308 32.1257 156.807 31.6113C156.312 31.097 155.654 30.8398 154.834 30.8398ZM165.947 30.8496C164.925 30.8496 164.137 31.1947 163.584 31.8848C163.031 32.5749 162.754 33.5482 162.754 34.8047C162.754 35.5859 162.878 36.2793 163.125 36.8848C163.372 37.4837 163.73 37.9525 164.199 38.291C164.668 38.6296 165.218 38.7988 165.85 38.7988C166.598 38.7988 167.214 38.5677 167.695 38.1055C168.177 37.6432 168.477 37.0085 168.594 36.2012L170.332 36.4648C170.221 37.2331 169.954 37.9036 169.531 38.4766C169.108 39.043 168.571 39.4792 167.92 39.7852C167.269 40.0911 166.556 40.2441 165.781 40.2441C164.824 40.2441 163.981 40.026 163.252 39.5898C162.523 39.1471 161.956 38.5189 161.553 37.7051C161.156 36.8913 160.957 35.9342 160.957 34.834C160.957 33.6751 161.156 32.6888 161.553 31.875C161.956 31.0612 162.526 30.446 163.262 30.0293C163.997 29.6126 164.867 29.4043 165.869 29.4043C166.605 29.4043 167.275 29.5345 167.881 29.7949C168.486 30.0488 168.984 30.4232 169.375 30.918C169.772 31.4062 170.033 31.9922 170.156 32.6758L168.457 32.9297C168.294 32.2721 167.992 31.7611 167.549 31.3965C167.106 31.0319 166.572 30.8496 165.947 30.8496ZM174.121 29.6387H176.084V30.9961H174.121V37.2754C174.121 37.6595 174.154 37.946 174.219 38.1348C174.29 38.3236 174.395 38.4505 174.531 38.5156C174.668 38.5742 174.857 38.6035 175.098 38.6035C175.332 38.6035 175.661 38.5612 176.084 38.4766L176.318 39.9414C175.817 40.0586 175.312 40.1172 174.805 40.1172C174.173 40.1172 173.685 40.026 173.34 39.8438C173.001 39.6549 172.751 39.3783 172.588 39.0137C172.438 38.6621 172.363 38.0273 172.363 37.1094V30.9961H170.879V29.6387H172.363V27.2559L174.121 25.9961V29.6387ZM191.846 29.9707C191.637 28.929 191.257 28.1836 190.703 27.7344C190.156 27.2852 189.411 27.0605 188.467 27.0605C187.848 27.0605 187.301 27.1517 186.826 27.334C186.351 27.5163 185.98 27.7767 185.713 28.1152C185.446 28.4473 185.312 28.8346 185.312 29.2773C185.312 29.7331 185.433 30.0977 185.674 30.3711C185.915 30.6445 186.283 30.8724 186.777 31.0547C187.279 31.237 187.995 31.429 188.926 31.6309C190.208 31.9108 191.224 32.2331 191.973 32.5977C192.728 32.9622 193.275 33.4147 193.613 33.9551C193.958 34.4889 194.131 35.1562 194.131 35.957C194.131 36.7643 193.906 37.4935 193.457 38.1445C193.014 38.7956 192.399 39.3099 191.611 39.6875C190.824 40.0586 189.935 40.2441 188.945 40.2441C187.233 40.2441 185.863 39.8438 184.834 39.043C183.812 38.2422 183.19 37.0736 182.969 35.5371L184.834 35.0977C184.964 36.2695 185.368 37.1517 186.045 37.7441C186.729 38.3301 187.669 38.623 188.867 38.623C189.492 38.623 190.068 38.5221 190.596 38.3203C191.123 38.1185 191.54 37.8385 191.846 37.4805C192.158 37.1159 192.314 36.709 192.314 36.2598C192.314 35.6608 192.168 35.1953 191.875 34.8633C191.582 34.5247 191.146 34.2546 190.566 34.0527C190.085 33.8835 189.385 33.6914 188.467 33.4766C187.92 33.3529 187.536 33.2585 187.314 33.1934C186.318 32.9264 185.54 32.6042 184.98 32.2266C184.427 31.849 184.04 31.4225 183.818 30.9473C183.604 30.4655 183.496 29.8958 183.496 29.2383C183.496 28.5221 183.708 27.8743 184.131 27.2949C184.561 26.7155 185.15 26.263 185.898 25.9375C186.654 25.6055 187.497 25.4395 188.428 25.4395C189.411 25.4395 190.28 25.6022 191.035 25.9277C191.79 26.2533 192.396 26.7253 192.852 27.3438C193.314 27.9622 193.6 28.7012 193.711 29.5605L191.885 29.9707H191.846ZM198.34 38.8184H198.291V43.9648H196.533V29.6387H198.174V30.957H198.213C198.571 30.4557 199.007 30.0716 199.521 29.8047C200.042 29.5378 200.635 29.4043 201.299 29.4043C202.23 29.4043 203.044 29.6257 203.74 30.0684C204.437 30.5111 204.974 31.1426 205.352 31.9629C205.729 32.7767 205.918 33.7305 205.918 34.8242C205.918 35.9049 205.732 36.8555 205.361 37.6758C204.99 38.4896 204.466 39.1211 203.789 39.5703C203.112 40.0195 202.327 40.2441 201.436 40.2441C200.14 40.2441 199.108 39.7689 198.34 38.8184ZM201.143 30.8398C200.544 30.8398 200.02 31.0059 199.57 31.3379C199.121 31.6699 198.776 32.1257 198.535 32.7051C198.294 33.2845 198.174 33.9388 198.174 34.668C198.174 35.5273 198.298 36.2663 198.545 36.8848C198.799 37.5033 199.154 37.9785 199.609 38.3105C200.072 38.6361 200.612 38.7988 201.23 38.7988C201.836 38.7988 202.354 38.6296 202.783 38.291C203.219 37.9525 203.548 37.4837 203.77 36.8848C203.997 36.2858 204.111 35.5957 204.111 34.8145C204.111 33.9876 203.988 33.2747 203.74 32.6758C203.493 32.0768 203.145 31.6211 202.695 31.3086C202.253 30.9961 201.735 30.8398 201.143 30.8398ZM207.324 34.8242C207.324 33.6979 207.526 32.7279 207.93 31.9141C208.333 31.1003 208.9 30.4785 209.629 30.0488C210.365 29.6191 211.214 29.4043 212.178 29.4043C213.148 29.4043 213.997 29.6126 214.727 30.0293C215.456 30.446 216.022 31.0612 216.426 31.875C216.836 32.6823 217.041 33.6589 217.041 34.8047C217.041 35.944 216.836 36.9238 216.426 37.7441C216.016 38.5579 215.443 39.1797 214.707 39.6094C213.978 40.0326 213.135 40.2441 212.178 40.2441C211.227 40.2441 210.387 40.0391 209.658 39.6289C208.929 39.2122 208.356 38.597 207.939 37.7832C207.529 36.9694 207.324 35.9831 207.324 34.8242ZM212.168 30.8496C211.582 30.8496 211.058 31.0026 210.596 31.3086C210.14 31.6081 209.779 32.0573 209.512 32.6562C209.251 33.2487 209.121 33.9714 209.121 34.8242C209.121 35.6771 209.251 36.403 209.512 37.002C209.772 37.5944 210.13 38.0436 210.586 38.3496C211.048 38.6491 211.579 38.7988 212.178 38.7988C212.796 38.7988 213.337 38.6426 213.799 38.3301C214.261 38.0176 214.616 37.5618 214.863 36.9629C215.117 36.3639 215.244 35.6445 215.244 34.8047C215.244 33.9583 215.114 33.2389 214.854 32.6465C214.593 32.054 214.232 31.6081 213.77 31.3086C213.307 31.0026 212.773 30.8496 212.168 30.8496ZM220.938 29.6387H222.9V30.9961H220.938V37.2754C220.938 37.6595 220.97 37.946 221.035 38.1348C221.107 38.3236 221.211 38.4505 221.348 38.5156C221.484 38.5742 221.673 38.6035 221.914 38.6035C222.148 38.6035 222.477 38.5612 222.9 38.4766L223.135 39.9414C222.633 40.0586 222.129 40.1172 221.621 40.1172C220.99 40.1172 220.501 40.026 220.156 39.8438C219.818 39.6549 219.567 39.3783 219.404 39.0137C219.255 38.6621 219.18 38.0273 219.18 37.1094V30.9961H217.695V29.6387H219.18V27.2559L220.938 25.9961V29.6387ZM226.494 27.6758H224.736V25.6836H226.494V27.6758ZM226.494 40H224.736V29.6387H226.494V40ZM232.676 26.9629C232.279 26.9629 231.982 27.028 231.787 27.1582C231.592 27.2819 231.465 27.4512 231.406 27.666C231.354 27.8809 231.328 28.1738 231.328 28.5449V29.6387H233.33V30.9961H231.328V40H229.57V30.9961H228.008V29.6387H229.57V28.4082C229.57 27.3861 229.795 26.6374 230.244 26.1621C230.693 25.6803 231.426 25.4395 232.441 25.4395C233.092 25.4395 233.75 25.5208 234.414 25.6836L234.033 27.1777C233.564 27.0345 233.112 26.9629 232.676 26.9629ZM237.793 35.6152C237.995 36.1751 238.138 36.6016 238.223 36.8945C238.314 37.1875 238.418 37.5684 238.535 38.0371H238.574C238.704 37.4577 238.805 37.0475 238.877 36.8066C238.955 36.5592 239.134 36.0514 239.414 35.2832L241.475 29.6387H243.262L239.062 40.7715C238.724 41.6699 238.398 42.3633 238.086 42.8516C237.773 43.3464 237.438 43.6947 237.08 43.8965C236.722 44.0983 236.296 44.1992 235.801 44.1992C235.618 44.1992 235.381 44.1764 235.088 44.1309C234.795 44.0918 234.544 44.0495 234.336 44.0039L234.697 42.5195C234.971 42.6237 235.234 42.6758 235.488 42.6758C235.866 42.6758 236.175 42.5814 236.416 42.3926C236.663 42.2038 236.862 41.9499 237.012 41.6309C237.168 41.3184 237.311 40.9896 237.441 40.6445C237.572 40.2995 237.65 40.0911 237.676 40.0195L233.74 29.6387H235.635L237.793 35.6152Z" fill="url(#paint1_linear_130_89)"/>
<defs>
<linearGradient id="paint0_linear_130_89" x1="170" y1="3" x2="170" y2="62" gradientUnits="userSpaceOnUse">
<stop stop-color="#EF7CA5"/>
<stop offset="1" stop-color="#8B55F3"/>
</linearGradient>
<linearGradient id="paint1_linear_130_89" x1="172.5" y1="20" x2="172.5" y2="142" gradientUnits="userSpaceOnUse">
<stop stop-color="#EF7CA5"/>
<stop offset="1" stop-color="#8B55F3"/>
</linearGradient>
</defs>
</svg>
