<svg width="175" height="60" viewBox="0 0 175 60" fill="none" xmlns="http://www.w3.org/2000/svg">
<g filter="url(#filter0_d_12_190)">
<rect x="4" width="167" height="52" rx="26" fill="url(#paint0_linear_12_190)" fill-opacity="0.8" shape-rendering="crispEdges"/>
</g>
<path d="M56.7031 25.3164C56.7031 27.1758 56.3984 28.7539 55.7891 30.0508C55.1875 31.3477 54.3164 32.332 53.1758 33.0039C52.0352 33.668 50.6641 34 49.0625 34H42.9805V16.8203H49.2617C50.8164 16.8203 52.1484 17.1445 53.2578 17.793C54.3672 18.4414 55.2188 19.4023 55.8125 20.6758C56.4062 21.9414 56.7031 23.4883 56.7031 25.3164ZM54.3477 25.2695C54.3477 23.0508 53.8906 21.4297 52.9766 20.4062C52.0703 19.375 50.7344 18.8594 48.9688 18.8594H45.2539V31.9609H48.8867C50.7305 31.9609 52.1016 31.4219 53 30.3438C53.8984 29.2578 54.3477 27.5664 54.3477 25.2695ZM61.9766 19.2109H59.8672V16.8203H61.9766V19.2109ZM61.9766 34H59.8672V21.5664H61.9766V34ZM69.043 23.0078C68.3164 23.0078 67.7383 23.1562 67.3086 23.4531C66.8867 23.7422 66.6758 24.1289 66.6758 24.6133C66.6758 24.9805 66.7656 25.2812 66.9453 25.5156C67.125 25.75 67.4141 25.9453 67.8125 26.1016C68.2109 26.25 68.7656 26.3828 69.4766 26.5C70.5547 26.6797 71.4336 26.918 72.1133 27.2148C72.8008 27.5117 73.3203 27.9141 73.6719 28.4219C74.0312 28.9219 74.2109 29.5625 74.2109 30.3438C74.2109 31.0859 74.0117 31.7617 73.6133 32.3711C73.2227 32.9805 72.6641 33.4531 71.9375 33.7891C71.2188 34.125 70.3867 34.293 69.4414 34.293C66.4805 34.293 64.7734 32.9648 64.3203 30.3086L66.418 29.9688C66.5586 30.8438 66.8711 31.4961 67.3555 31.9258C67.8477 32.3477 68.5352 32.5586 69.418 32.5586C70.2617 32.5586 70.9102 32.3789 71.3633 32.0195C71.8242 31.6602 72.0547 31.1836 72.0547 30.5898C72.0547 30.0195 71.793 29.5781 71.2695 29.2656C70.7539 28.9531 70.0312 28.7266 69.1016 28.5859C67.6328 28.3594 66.5195 27.9609 65.7617 27.3906C65.0117 26.8125 64.6367 25.9727 64.6367 24.8711C64.6367 24.1836 64.8164 23.5703 65.1758 23.0312C65.543 22.4844 66.0586 22.0586 66.7227 21.7539C67.3867 21.4414 68.1602 21.2852 69.043 21.2852C70.4023 21.2852 71.4805 21.5742 72.2773 22.1523C73.082 22.7305 73.582 23.5898 73.7773 24.7305L71.7148 25.0469C71.6133 24.4141 71.3281 23.918 70.8594 23.5586C70.3984 23.1914 69.793 23.0078 69.043 23.0078ZM81.875 23.0195C80.6484 23.0195 79.7031 23.4336 79.0391 24.2617C78.375 25.0898 78.043 26.2578 78.043 27.7656C78.043 28.7031 78.1914 29.5352 78.4883 30.2617C78.7852 30.9805 79.2148 31.543 79.7773 31.9492C80.3398 32.3555 81 32.5586 81.7578 32.5586C82.6562 32.5586 83.3945 32.2812 83.9727 31.7266C84.5508 31.1719 84.9102 30.4102 85.0508 29.4414L87.1367 29.7578C87.0039 30.6797 86.6836 31.4844 86.1758 32.1719C85.668 32.8516 85.0234 33.375 84.2422 33.7422C83.4609 34.1094 82.6055 34.293 81.6758 34.293C80.5273 34.293 79.5156 34.0312 78.6406 33.5078C77.7656 32.9766 77.0859 32.2227 76.6016 31.2461C76.125 30.2695 75.8867 29.1211 75.8867 27.8008C75.8867 26.4102 76.125 25.2266 76.6016 24.25C77.0859 23.2734 77.7695 22.5352 78.6523 22.0352C79.5352 21.5352 80.5781 21.2852 81.7812 21.2852C82.6641 21.2852 83.4688 21.4414 84.1953 21.7539C84.9219 22.0586 85.5195 22.5078 85.9883 23.1016C86.4648 23.6875 86.7773 24.3906 86.9258 25.2109L84.8867 25.5156C84.6914 24.7266 84.3281 24.1133 83.7969 23.6758C83.2656 23.2383 82.625 23.0195 81.875 23.0195ZM88.4727 27.7891C88.4727 26.4375 88.7148 25.2734 89.1992 24.2969C89.6836 23.3203 90.3633 22.5742 91.2383 22.0586C92.1211 21.543 93.1406 21.2852 94.2969 21.2852C95.4609 21.2852 96.4805 21.5352 97.3555 22.0352C98.2305 22.5352 98.9102 23.2734 99.3945 24.25C99.8867 25.2188 100.133 26.3906 100.133 27.7656C100.133 29.1328 99.8867 30.3086 99.3945 31.293C98.9023 32.2695 98.2148 33.0156 97.332 33.5312C96.457 34.0391 95.4453 34.293 94.2969 34.293C93.1562 34.293 92.1484 34.0469 91.2734 33.5547C90.3984 33.0547 89.7109 32.3164 89.2109 31.3398C88.7188 30.3633 88.4727 29.1797 88.4727 27.7891ZM94.2852 23.0195C93.582 23.0195 92.9531 23.2031 92.3984 23.5703C91.8516 23.9297 91.418 24.4688 91.0977 25.1875C90.7852 25.8984 90.6289 26.7656 90.6289 27.7891C90.6289 28.8125 90.7852 29.6836 91.0977 30.4023C91.4102 31.1133 91.8398 31.6523 92.3867 32.0195C92.9414 32.3789 93.5781 32.5586 94.2969 32.5586C95.0391 32.5586 95.6875 32.3711 96.2422 31.9961C96.7969 31.6211 97.2227 31.0742 97.5195 30.3555C97.8242 29.6367 97.9766 28.7734 97.9766 27.7656C97.9766 26.75 97.8203 25.8867 97.5078 25.1758C97.1953 24.4648 96.7617 23.9297 96.207 23.5703C95.6523 23.2031 95.0117 23.0195 94.2852 23.0195ZM105.617 28.7148C105.938 29.6055 106.23 30.543 106.496 31.5273H106.543C106.691 30.918 106.945 30.125 107.305 29.1484L110.07 21.5664H112.227L107.527 34H105.559L100.824 21.5664H103.062L105.617 28.7148ZM118.871 32.5586C119.668 32.5586 120.355 32.3242 120.934 31.8555C121.52 31.3867 121.926 30.7656 122.152 29.9922L124.215 30.3086C123.863 31.5664 123.203 32.5469 122.234 33.25C121.273 33.9453 120.117 34.293 118.766 34.293C117.578 34.293 116.543 34.0312 115.66 33.5078C114.785 32.9844 114.109 32.2422 113.633 31.2812C113.156 30.3125 112.918 29.1797 112.918 27.8828C112.918 26.5469 113.152 25.3828 113.621 24.3906C114.09 23.3984 114.762 22.6328 115.637 22.0938C116.52 21.5547 117.555 21.2852 118.742 21.2852C119.891 21.2852 120.891 21.543 121.742 22.0586C122.594 22.5664 123.25 23.3164 123.711 24.3086C124.172 25.3008 124.402 26.4922 124.402 27.8828V28.3164H115.098C115.145 29.207 115.328 29.9727 115.648 30.6133C115.969 31.2461 116.402 31.7305 116.949 32.0664C117.504 32.3945 118.145 32.5586 118.871 32.5586ZM118.719 23.0078C118.094 23.0078 117.531 23.1562 117.031 23.4531C116.531 23.75 116.117 24.168 115.789 24.707C115.469 25.2461 115.262 25.8711 115.168 26.582H122.176C122.051 25.4336 121.688 24.5508 121.086 23.9336C120.492 23.3164 119.703 23.0078 118.719 23.0078ZM131.727 23.4414C130.828 23.4414 130.141 23.7891 129.664 24.4844C129.195 25.1719 128.961 26.1328 128.961 27.3672V34H126.852V21.5664H128.82V23.4414C129.281 22.6602 129.75 22.1055 130.227 21.7773C130.703 21.4492 131.277 21.2852 131.949 21.2852C132.324 21.2852 132.672 21.332 132.992 21.4258C133.32 21.5117 133.652 21.6562 133.988 21.8594L133.262 23.8047C132.809 23.5625 132.297 23.4414 131.727 23.4414Z" fill="white"/>
<defs>
<filter id="filter0_d_12_190" x="0" y="0" width="175" height="60" filterUnits="userSpaceOnUse" color-interpolation-filters="sRGB">
<feFlood flood-opacity="0" result="BackgroundImageFix"/>
<feColorMatrix in="SourceAlpha" type="matrix" values="0 0 0 0 0 0 0 0 0 0 0 0 0 0 0 0 0 0 127 0" result="hardAlpha"/>
<feOffset dy="4"/>
<feGaussianBlur stdDeviation="2"/>
<feComposite in2="hardAlpha" operator="out"/>
<feColorMatrix type="matrix" values="0 0 0 0 0 0 0 0 0 0 0 0 0 0 0 0 0 0 0.25 0"/>
<feBlend mode="normal" in2="BackgroundImageFix" result="effect1_dropShadow_12_190"/>
<feBlend mode="normal" in="SourceGraphic" in2="effect1_dropShadow_12_190" result="shape"/>
</filter>
<linearGradient id="paint0_linear_12_190" x1="4" y1="26" x2="171" y2="26" gradientUnits="userSpaceOnUse">
<stop stop-color="#AE78FF"/>
<stop offset="1" stop-color="#F584B0"/>
</linearGradient>
</defs>
</svg>
