<svg width="347" height="87" viewBox="0 0 347 87" fill="none" xmlns="http://www.w3.org/2000/svg">
<rect width="347" height="64" rx="30" fill="#23C72E"/>
<path d="M89.2237 28H87.4624C87.3582 27.4934 87.1759 27.0483 86.9155 26.6648C86.6598 26.2812 86.3473 25.9593 85.978 25.6989C85.6134 25.4337 85.2086 25.2348 84.7635 25.1023C84.3184 24.9697 83.8544 24.9034 83.3714 24.9034C82.4908 24.9034 81.6929 25.1259 80.978 25.571C80.2678 26.0161 79.7019 26.6719 79.2805 27.5384C78.8639 28.4048 78.6555 29.4678 78.6555 30.7273C78.6555 31.9867 78.8639 33.0497 79.2805 33.9162C79.7019 34.7827 80.2678 35.4384 80.978 35.8835C81.6929 36.3286 82.4908 36.5511 83.3714 36.5511C83.8544 36.5511 84.3184 36.4848 84.7635 36.3523C85.2086 36.2197 85.6134 36.0232 85.978 35.7628C86.3473 35.4976 86.6598 35.1733 86.9155 34.7898C87.1759 34.4015 87.3582 33.9564 87.4624 33.4545H89.2237C89.0911 34.1979 88.8497 34.8632 88.4993 35.4503C88.1489 36.0374 87.7133 36.5369 87.1925 36.9489C86.6716 37.3561 86.0869 37.6662 85.4382 37.8793C84.7943 38.0923 84.1054 38.1989 83.3714 38.1989C82.1309 38.1989 81.0277 37.8958 80.0618 37.2898C79.0959 36.6837 78.3359 35.822 77.782 34.7045C77.228 33.5871 76.951 32.2614 76.951 30.7273C76.951 29.1932 77.228 27.8674 77.782 26.75C78.3359 25.6326 79.0959 24.7708 80.0618 24.1648C81.0277 23.5587 82.1309 23.2557 83.3714 23.2557C84.1054 23.2557 84.7943 23.3622 85.4382 23.5753C86.0869 23.7884 86.6716 24.1009 87.1925 24.5128C87.7133 24.92 88.1489 25.4171 88.4993 26.0043C88.8497 26.5866 89.0911 27.2519 89.2237 28ZM96.2745 38.2273C95.2897 38.2273 94.4255 37.9929 93.6822 37.5241C92.9435 37.0554 92.3659 36.3996 91.9492 35.5568C91.5373 34.714 91.3313 33.7292 91.3313 32.6023C91.3313 31.4659 91.5373 30.474 91.9492 29.6264C92.3659 28.7789 92.9435 28.1207 93.6822 27.652C94.4255 27.1832 95.2897 26.9489 96.2745 26.9489C97.2594 26.9489 98.1211 27.1832 98.8597 27.652C99.6031 28.1207 100.181 28.7789 100.593 29.6264C101.009 30.474 101.218 31.4659 101.218 32.6023C101.218 33.7292 101.009 34.714 100.593 35.5568C100.181 36.3996 99.6031 37.0554 98.8597 37.5241C98.1211 37.9929 97.2594 38.2273 96.2745 38.2273ZM96.2745 36.7216C97.0226 36.7216 97.6381 36.5298 98.1211 36.1463C98.604 35.7628 98.9615 35.2585 99.1935 34.6335C99.4255 34.0085 99.5415 33.3314 99.5415 32.6023C99.5415 31.8731 99.4255 31.1937 99.1935 30.5639C98.9615 29.9342 98.604 29.4252 98.1211 29.0369C97.6381 28.6487 97.0226 28.4545 96.2745 28.4545C95.5264 28.4545 94.9109 28.6487 94.4279 29.0369C93.945 29.4252 93.5875 29.9342 93.3555 30.5639C93.1235 31.1937 93.0075 31.8731 93.0075 32.6023C93.0075 33.3314 93.1235 34.0085 93.3555 34.6335C93.5875 35.2585 93.945 35.7628 94.4279 36.1463C94.9109 36.5298 95.5264 36.7216 96.2745 36.7216ZM105.452 31.4375V38H103.776V27.0909H105.396V28.7955H105.538C105.793 28.2415 106.182 27.7964 106.702 27.4602C107.223 27.1193 107.896 26.9489 108.719 26.9489C109.458 26.9489 110.104 27.1004 110.658 27.4034C111.212 27.7017 111.643 28.1562 111.951 28.767C112.259 29.3731 112.413 30.1402 112.413 31.0682V38H110.737V31.1818C110.737 30.3248 110.514 29.6572 110.069 29.179C109.624 28.696 109.013 28.4545 108.237 28.4545C107.701 28.4545 107.223 28.5705 106.802 28.8026C106.385 29.0346 106.056 29.3731 105.815 29.8182C105.573 30.2633 105.452 30.803 105.452 31.4375ZM117.152 31.4375V38H115.475V27.0909H117.095V28.7955H117.237C117.493 28.2415 117.881 27.7964 118.402 27.4602C118.922 27.1193 119.595 26.9489 120.419 26.9489C121.157 26.9489 121.804 27.1004 122.358 27.4034C122.912 27.7017 123.342 28.1562 123.65 28.767C123.958 29.3731 124.112 30.1402 124.112 31.0682V38H122.436V31.1818C122.436 30.3248 122.213 29.6572 121.768 29.179C121.323 28.696 120.712 28.4545 119.936 28.4545C119.401 28.4545 118.922 28.5705 118.501 28.8026C118.084 29.0346 117.755 29.3731 117.514 29.8182C117.272 30.2633 117.152 30.803 117.152 31.4375ZM131.749 38.2273C130.697 38.2273 129.791 37.9953 129.028 37.5312C128.271 37.0625 127.686 36.4091 127.274 35.571C126.867 34.7282 126.663 33.7481 126.663 32.6307C126.663 31.5133 126.867 30.5284 127.274 29.6761C127.686 28.8191 128.259 28.1515 128.993 27.6733C129.732 27.1903 130.593 26.9489 131.578 26.9489C132.146 26.9489 132.707 27.0436 133.261 27.233C133.815 27.4223 134.32 27.7301 134.774 28.1562C135.229 28.5777 135.591 29.1364 135.861 29.8324C136.131 30.5284 136.266 31.3854 136.266 32.4034V33.1136H127.857V31.6648H134.561C134.561 31.0492 134.438 30.5 134.192 30.017C133.95 29.5341 133.605 29.1529 133.155 28.8736C132.71 28.5942 132.184 28.4545 131.578 28.4545C130.911 28.4545 130.333 28.6203 129.845 28.9517C129.362 29.2784 128.991 29.7045 128.73 30.2301C128.47 30.7557 128.339 31.3191 128.339 31.9205V32.8864C128.339 33.7102 128.482 34.4086 128.766 34.9815C129.054 35.5497 129.455 35.983 129.966 36.2812C130.477 36.5748 131.071 36.7216 131.749 36.7216C132.189 36.7216 132.587 36.66 132.942 36.5369C133.302 36.4091 133.612 36.2197 133.872 35.9688C134.133 35.7131 134.334 35.3958 134.476 35.017L136.095 35.4716C135.925 36.0208 135.638 36.5038 135.236 36.9205C134.833 37.3324 134.336 37.6544 133.744 37.8864C133.152 38.1136 132.487 38.2273 131.749 38.2273ZM143.247 38.2273C142.224 38.2273 141.344 37.9858 140.605 37.5028C139.866 37.0199 139.298 36.3546 138.901 35.5071C138.503 34.6596 138.304 33.6913 138.304 32.6023C138.304 31.4943 138.508 30.5166 138.915 29.669C139.327 28.8168 139.9 28.1515 140.634 27.6733C141.372 27.1903 142.234 26.9489 143.219 26.9489C143.986 26.9489 144.677 27.0909 145.293 27.375C145.908 27.6591 146.412 28.0568 146.805 28.5682C147.198 29.0795 147.442 29.6761 147.537 30.358H145.861C145.733 29.8608 145.449 29.4205 145.009 29.0369C144.573 28.6487 143.986 28.4545 143.247 28.4545C142.594 28.4545 142.021 28.625 141.528 28.9659C141.041 29.3021 140.66 29.7779 140.385 30.3935C140.115 31.0043 139.98 31.7216 139.98 32.5455C139.98 33.3883 140.113 34.1222 140.378 34.7472C140.648 35.3722 141.027 35.8575 141.514 36.2031C142.007 36.5488 142.584 36.7216 143.247 36.7216C143.683 36.7216 144.078 36.6458 144.433 36.4943C144.788 36.3428 145.089 36.125 145.335 35.8409C145.581 35.5568 145.757 35.2159 145.861 34.8182H147.537C147.442 35.4621 147.208 36.0421 146.834 36.5582C146.464 37.0696 145.974 37.4768 145.364 37.7798C144.758 38.0781 144.052 38.2273 143.247 38.2273ZM154.732 27.0909V28.5114H149.078V27.0909H154.732ZM150.726 24.4773H152.402V34.875C152.402 35.3485 152.471 35.7036 152.608 35.9403C152.75 36.1723 152.93 36.3286 153.148 36.4091C153.37 36.4848 153.605 36.5227 153.851 36.5227C154.036 36.5227 154.187 36.5133 154.305 36.4943C154.424 36.4706 154.518 36.4517 154.589 36.4375L154.93 37.9432C154.817 37.9858 154.658 38.0284 154.455 38.071C154.251 38.1184 153.993 38.142 153.68 38.142C153.207 38.142 152.743 38.0402 152.288 37.8366C151.839 37.633 151.464 37.3229 151.166 36.9062C150.873 36.4896 150.726 35.964 150.726 35.3295V24.4773ZM165.747 38L161.77 23.4545H163.56L166.599 35.3011H166.741L169.838 23.4545H171.827L174.923 35.3011H175.065L178.105 23.4545H179.895L175.918 38H174.099L170.889 26.4091H170.776L167.565 38H165.747ZM181.862 38V27.0909H183.538V38H181.862ZM182.714 25.2727C182.388 25.2727 182.106 25.1615 181.869 24.9389C181.637 24.7164 181.521 24.4489 181.521 24.1364C181.521 23.8239 181.637 23.5563 181.869 23.3338C182.106 23.1113 182.388 23 182.714 23C183.041 23 183.321 23.1113 183.553 23.3338C183.789 23.5563 183.908 23.8239 183.908 24.1364C183.908 24.4489 183.789 24.7164 183.553 24.9389C183.321 25.1615 183.041 25.2727 182.714 25.2727ZM191.353 27.0909V28.5114H185.699V27.0909H191.353ZM187.347 24.4773H189.023V34.875C189.023 35.3485 189.092 35.7036 189.229 35.9403C189.371 36.1723 189.551 36.3286 189.769 36.4091C189.991 36.4848 190.226 36.5227 190.472 36.5227C190.657 36.5227 190.808 36.5133 190.926 36.4943C191.045 36.4706 191.14 36.4517 191.211 36.4375L191.551 37.9432C191.438 37.9858 191.279 38.0284 191.076 38.071C190.872 38.1184 190.614 38.142 190.301 38.142C189.828 38.142 189.364 38.0402 188.909 37.8366C188.46 37.633 188.086 37.3229 187.787 36.9062C187.494 36.4896 187.347 35.964 187.347 35.3295V24.4773ZM195.784 31.4375V38H194.108V23.4545H195.784V28.7955H195.926C196.182 28.232 196.566 27.7846 197.077 27.4531C197.593 27.117 198.28 26.9489 199.137 26.9489C199.88 26.9489 200.531 27.098 201.09 27.3963C201.649 27.6899 202.082 28.142 202.39 28.7528C202.702 29.3589 202.858 30.1307 202.858 31.0682V38H201.182V31.1818C201.182 30.3153 200.957 29.6454 200.507 29.1719C200.062 28.6937 199.444 28.4545 198.654 28.4545C198.105 28.4545 197.612 28.5705 197.176 28.8026C196.746 29.0346 196.405 29.3731 196.154 29.8182C195.908 30.2633 195.784 30.803 195.784 31.4375ZM219.732 27.0909C219.646 26.3712 219.301 25.8125 218.695 25.4148C218.089 25.017 217.345 24.8182 216.464 24.8182C215.821 24.8182 215.257 24.9223 214.774 25.1307C214.296 25.339 213.922 25.6255 213.652 25.9901C213.387 26.3546 213.254 26.7689 213.254 27.233C213.254 27.6212 213.347 27.955 213.531 28.2344C213.721 28.509 213.962 28.7386 214.256 28.9233C214.549 29.1032 214.857 29.2524 215.179 29.3707C215.501 29.4844 215.797 29.5767 216.067 29.6477L217.544 30.0455C217.923 30.1449 218.344 30.2822 218.808 30.4574C219.277 30.6326 219.724 30.8717 220.151 31.1747C220.581 31.473 220.937 31.8565 221.216 32.3253C221.495 32.794 221.635 33.3693 221.635 34.0511C221.635 34.8371 221.429 35.5473 221.017 36.1818C220.61 36.8163 220.013 37.3205 219.227 37.6946C218.446 38.0687 217.497 38.2557 216.379 38.2557C215.338 38.2557 214.436 38.0876 213.673 37.7514C212.916 37.4152 212.319 36.9465 211.884 36.3452C211.453 35.7438 211.209 35.0455 211.152 34.25H212.97C213.018 34.7992 213.202 35.2538 213.524 35.6136C213.851 35.9687 214.263 36.2339 214.76 36.4091C215.262 36.5795 215.802 36.6648 216.379 36.6648C217.052 36.6648 217.655 36.5559 218.19 36.3381C218.725 36.1155 219.149 35.8078 219.462 35.4148C219.774 35.017 219.93 34.553 219.93 34.0227C219.93 33.5398 219.795 33.1468 219.526 32.8438C219.256 32.5407 218.901 32.2945 218.46 32.1051C218.02 31.9157 217.544 31.75 217.033 31.608L215.243 31.0966C214.107 30.7699 213.207 30.3035 212.544 29.6974C211.881 29.0914 211.55 28.2983 211.55 27.3182C211.55 26.5038 211.77 25.7936 212.21 25.1875C212.655 24.5767 213.252 24.1032 214 23.767C214.753 23.4261 215.593 23.2557 216.521 23.2557C217.459 23.2557 218.292 23.4238 219.021 23.7599C219.75 24.0914 220.328 24.5459 220.754 25.1236C221.185 25.7012 221.412 26.357 221.436 27.0909H219.732ZM224.304 42.0909V27.0909H225.923V28.8239H226.122C226.245 28.6345 226.415 28.393 226.633 28.0994C226.856 27.8011 227.173 27.536 227.585 27.304C228.002 27.0672 228.565 26.9489 229.275 26.9489C230.194 26.9489 231.003 27.1785 231.704 27.6378C232.405 28.0971 232.952 28.7481 233.345 29.5909C233.738 30.4337 233.934 31.428 233.934 32.5739C233.934 33.7292 233.738 34.7306 233.345 35.5781C232.952 36.4209 232.407 37.0743 231.711 37.5384C231.015 37.9976 230.213 38.2273 229.304 38.2273C228.603 38.2273 228.042 38.1113 227.62 37.8793C227.199 37.6425 226.875 37.375 226.647 37.0767C226.42 36.7737 226.245 36.5227 226.122 36.3239H225.98V42.0909H224.304ZM225.951 32.5455C225.951 33.3693 226.072 34.0961 226.314 34.7259C226.555 35.3509 226.908 35.8409 227.372 36.196C227.836 36.5464 228.404 36.7216 229.076 36.7216C229.777 36.7216 230.362 36.5369 230.831 36.1676C231.304 35.7936 231.659 35.2917 231.896 34.6619C232.137 34.0275 232.258 33.322 232.258 32.5455C232.258 31.7784 232.14 31.0871 231.903 30.4716C231.671 29.8513 231.318 29.3613 230.845 29.0014C230.376 28.6368 229.787 28.4545 229.076 28.4545C228.395 28.4545 227.822 28.6274 227.358 28.973C226.894 29.3139 226.543 29.7921 226.306 30.4077C226.07 31.0185 225.951 31.7311 225.951 32.5455ZM240.923 38.2273C239.938 38.2273 239.074 37.9929 238.331 37.5241C237.592 37.0554 237.014 36.3996 236.598 35.5568C236.186 34.714 235.98 33.7292 235.98 32.6023C235.98 31.4659 236.186 30.474 236.598 29.6264C237.014 28.7789 237.592 28.1207 238.331 27.652C239.074 27.1832 239.938 26.9489 240.923 26.9489C241.908 26.9489 242.77 27.1832 243.508 27.652C244.252 28.1207 244.829 28.7789 245.241 29.6264C245.658 30.474 245.866 31.4659 245.866 32.6023C245.866 33.7292 245.658 34.714 245.241 35.5568C244.829 36.3996 244.252 37.0554 243.508 37.5241C242.77 37.9929 241.908 38.2273 240.923 38.2273ZM240.923 36.7216C241.671 36.7216 242.287 36.5298 242.77 36.1463C243.252 35.7628 243.61 35.2585 243.842 34.6335C244.074 34.0085 244.19 33.3314 244.19 32.6023C244.19 31.8731 244.074 31.1937 243.842 30.5639C243.61 29.9342 243.252 29.4252 242.77 29.0369C242.287 28.6487 241.671 28.4545 240.923 28.4545C240.175 28.4545 239.559 28.6487 239.076 29.0369C238.593 29.4252 238.236 29.9342 238.004 30.5639C237.772 31.1937 237.656 31.8731 237.656 32.6023C237.656 33.3314 237.772 34.0085 238.004 34.6335C238.236 35.2585 238.593 35.7628 239.076 36.1463C239.559 36.5298 240.175 36.7216 240.923 36.7216ZM253.169 27.0909V28.5114H247.516V27.0909H253.169ZM249.163 24.4773H250.839V34.875C250.839 35.3485 250.908 35.7036 251.045 35.9403C251.188 36.1723 251.367 36.3286 251.585 36.4091C251.808 36.4848 252.042 36.5227 252.288 36.5227C252.473 36.5227 252.625 36.5133 252.743 36.4943C252.861 36.4706 252.956 36.4517 253.027 36.4375L253.368 37.9432C253.254 37.9858 253.096 38.0284 252.892 38.071C252.688 38.1184 252.43 38.142 252.118 38.142C251.644 38.142 251.18 38.0402 250.726 37.8366C250.276 37.633 249.902 37.3229 249.604 36.9062C249.31 36.4896 249.163 35.964 249.163 35.3295V24.4773ZM255.69 38V27.0909H257.366V38H255.69ZM256.543 25.2727C256.216 25.2727 255.934 25.1615 255.697 24.9389C255.465 24.7164 255.349 24.4489 255.349 24.1364C255.349 23.8239 255.465 23.5563 255.697 23.3338C255.934 23.1113 256.216 23 256.543 23C256.869 23 257.149 23.1113 257.381 23.3338C257.617 23.5563 257.736 23.8239 257.736 24.1364C257.736 24.4489 257.617 24.7164 257.381 24.9389C257.149 25.1615 256.869 25.2727 256.543 25.2727ZM265.294 27.0909V28.5114H259.414V27.0909H265.294ZM261.175 38V25.5852C261.175 24.9602 261.322 24.4394 261.615 24.0227C261.909 23.6061 262.29 23.2936 262.759 23.0852C263.228 22.8769 263.722 22.7727 264.243 22.7727C264.655 22.7727 264.991 22.8059 265.252 22.8722C265.512 22.9384 265.706 23 265.834 23.0568L265.351 24.5057C265.266 24.4773 265.148 24.4418 264.996 24.3991C264.849 24.3565 264.655 24.3352 264.414 24.3352C263.86 24.3352 263.46 24.4749 263.213 24.7543C262.972 25.0336 262.851 25.4432 262.851 25.983V38H261.175ZM268.723 42.0909C268.439 42.0909 268.186 42.0672 267.963 42.0199C267.741 41.9773 267.587 41.9347 267.501 41.892L267.928 40.4148C268.335 40.5189 268.695 40.5568 269.007 40.5284C269.32 40.5 269.597 40.3603 269.838 40.1094C270.084 39.8632 270.309 39.4631 270.513 38.9091L270.825 38.0568L266.791 27.0909H268.609L271.621 35.7841H271.734L274.746 27.0909H276.564L271.933 39.5909C271.725 40.1544 271.467 40.6207 271.159 40.9901C270.851 41.3641 270.494 41.6411 270.087 41.821C269.684 42.0009 269.23 42.0909 268.723 42.0909Z" fill="white"/>
</svg>
