<svg width="392" height="67" viewBox="0 0 392 67" fill="none" xmlns="http://www.w3.org/2000/svg">
<path d="M129.465 28.04C137.465 29.92 140.305 32.28 140.305 36.92C140.305 40.64 137.025 45.68 126.665 45.68C118.545 45.68 114.425 41.24 112.425 37.72L122.065 35.44C124.105 37.48 126.465 37.84 127.985 37.84C129.585 37.84 130.665 37.24 130.665 36.32C130.665 35.04 129.185 34.76 125.225 34C120.985 33.16 113.185 30.92 113.185 24.44C113.185 19.76 117.265 16.36 125.945 16.36C133.585 16.36 138.745 20.96 139.625 24.28L130.665 26.12C129.825 24.72 127.465 24.2 125.505 24.2C124.145 24.2 122.785 24.52 122.785 25.4C122.785 26.8 125.265 27.08 129.465 28.04ZM156.815 16.36C164.295 16.36 172.175 20.4 172.175 31C172.175 41.64 164.295 45.68 156.815 45.68C149.375 45.68 141.495 41.64 141.495 31C141.495 20.4 149.375 16.36 156.815 16.36ZM156.815 37.84C159.735 37.84 163.055 36.24 163.055 31C163.055 25.8 159.735 24.2 156.815 24.2C153.935 24.2 150.615 25.8 150.615 31C150.615 36.24 153.935 37.84 156.815 37.84ZM193.049 17H202.329V45H193.049L183.689 30.32V45H174.409V17H183.689V17.04L193.049 31.76V17ZM219.9 16.36C227.38 16.36 235.26 20.4 235.26 31C235.26 41.64 227.38 45.68 219.9 45.68C212.46 45.68 204.58 41.64 204.58 31C204.58 20.4 212.46 16.36 219.9 16.36ZM219.9 37.84C222.82 37.84 226.14 36.24 226.14 31C226.14 25.8 222.82 24.2 219.9 24.2C217.02 24.2 213.7 25.8 213.7 31C213.7 36.24 217.02 37.84 219.9 37.84Z" fill="url(#paint0_radial_159_77)"/>
<rect x="27" width="68" height="60" rx="8" fill="url(#paint1_linear_159_77)"/>
<path d="M54 43V19.1667L78 15.5V39.3333M54 43C54 46.0376 51.3137 48.5 48 48.5C44.6863 48.5 42 46.0376 42 43C42 39.9624 44.6863 37.5 48 37.5C51.3137 37.5 54 39.9624 54 43ZM78 39.3333C78 42.3709 75.3137 44.8333 72 44.8333C68.6863 44.8333 66 42.3709 66 39.3333C66 36.2958 68.6863 33.8333 72 33.8333C75.3137 33.8333 78 36.2958 78 39.3333Z" stroke="#F9F6FF" stroke-width="4" stroke-linecap="round" stroke-linejoin="round"/>
<defs>
<radialGradient id="paint0_radial_159_77" cx="0" cy="0" r="1" gradientUnits="userSpaceOnUse" gradientTransform="translate(174 40.5) rotate(90) scale(26.5 218)">
<stop stop-color="#8B55F3"/>
<stop offset="1" stop-color="#95D0ED"/>
</radialGradient>
<linearGradient id="paint1_linear_159_77" x1="61" y1="0" x2="61" y2="60" gradientUnits="userSpaceOnUse">
<stop stop-color="#83D8FF"/>
<stop offset="1" stop-color="#E18FFF"/>
</linearGradient>
</defs>
</svg>
