<svg width="475" height="193" viewBox="0 0 475 193" fill="none" xmlns="http://www.w3.org/2000/svg">
<g filter="url(#filter0_d_159_76)">
<rect x="109" width="251" height="68" rx="30" fill="url(#paint0_linear_159_76)"/>
</g>
<path d="M164.809 37.2461C165.168 38.3164 165.406 39.0508 165.523 39.4492C165.633 39.8242 165.711 40.1055 165.758 40.293H165.805C165.852 40.1523 165.984 39.7461 166.203 39.0742L166.719 37.5273L170.727 25.8203H173.844V43H171.688V28.6211H171.641L166.695 43H164.656L159.734 28.3867H159.664V43H157.508V25.8203H160.988L164.809 37.2461ZM176.562 36.7891C176.562 35.4375 176.805 34.2734 177.289 33.2969C177.773 32.3203 178.453 31.5742 179.328 31.0586C180.211 30.543 181.23 30.2852 182.387 30.2852C183.551 30.2852 184.57 30.5352 185.445 31.0352C186.32 31.5352 187 32.2734 187.484 33.25C187.977 34.2188 188.223 35.3906 188.223 36.7656C188.223 38.1328 187.977 39.3086 187.484 40.293C186.992 41.2695 186.305 42.0156 185.422 42.5312C184.547 43.0391 183.535 43.293 182.387 43.293C181.246 43.293 180.238 43.0469 179.363 42.5547C178.488 42.0547 177.801 41.3164 177.301 40.3398C176.809 39.3633 176.562 38.1797 176.562 36.7891ZM182.375 32.0195C181.672 32.0195 181.043 32.2031 180.488 32.5703C179.941 32.9297 179.508 33.4688 179.188 34.1875C178.875 34.8984 178.719 35.7656 178.719 36.7891C178.719 37.8125 178.875 38.6836 179.188 39.4023C179.5 40.1133 179.93 40.6523 180.477 41.0195C181.031 41.3789 181.668 41.5586 182.387 41.5586C183.129 41.5586 183.777 41.3711 184.332 40.9961C184.887 40.6211 185.312 40.0742 185.609 39.3555C185.914 38.6367 186.066 37.7734 186.066 36.7656C186.066 35.75 185.91 34.8867 185.598 34.1758C185.285 33.4648 184.852 32.9297 184.297 32.5703C183.742 32.2031 183.102 32.0195 182.375 32.0195ZM189.922 36.7891C189.922 35.4375 190.164 34.2734 190.648 33.2969C191.133 32.3203 191.812 31.5742 192.688 31.0586C193.57 30.543 194.59 30.2852 195.746 30.2852C196.91 30.2852 197.93 30.5352 198.805 31.0352C199.68 31.5352 200.359 32.2734 200.844 33.25C201.336 34.2188 201.582 35.3906 201.582 36.7656C201.582 38.1328 201.336 39.3086 200.844 40.293C200.352 41.2695 199.664 42.0156 198.781 42.5312C197.906 43.0391 196.895 43.293 195.746 43.293C194.605 43.293 193.598 43.0469 192.723 42.5547C191.848 42.0547 191.16 41.3164 190.66 40.3398C190.168 39.3633 189.922 38.1797 189.922 36.7891ZM195.734 32.0195C195.031 32.0195 194.402 32.2031 193.848 32.5703C193.301 32.9297 192.867 33.4688 192.547 34.1875C192.234 34.8984 192.078 35.7656 192.078 36.7891C192.078 37.8125 192.234 38.6836 192.547 39.4023C192.859 40.1133 193.289 40.6523 193.836 41.0195C194.391 41.3789 195.027 41.5586 195.746 41.5586C196.488 41.5586 197.137 41.3711 197.691 40.9961C198.246 40.6211 198.672 40.0742 198.969 39.3555C199.273 38.6367 199.426 37.7734 199.426 36.7656C199.426 35.75 199.27 34.8867 198.957 34.1758C198.645 33.4648 198.211 32.9297 197.656 32.5703C197.102 32.2031 196.461 32.0195 195.734 32.0195ZM214.531 43H212.562V41.418H212.516C212.141 41.9883 211.617 42.4453 210.945 42.7891C210.273 43.125 209.57 43.293 208.836 43.293C207.758 43.293 206.797 43.0234 205.953 42.4844C205.109 41.9375 204.453 41.1719 203.984 40.1875C203.516 39.2031 203.281 38.0703 203.281 36.7891C203.281 35.4609 203.5 34.3086 203.938 33.332C204.375 32.3555 204.996 31.6055 205.801 31.082C206.613 30.5508 207.562 30.2852 208.648 30.2852C209.453 30.2852 210.156 30.4258 210.758 30.707C211.359 30.9883 211.898 31.4141 212.375 31.9844H212.422V25.8203H214.531V43ZM208.848 32.0078C208.137 32.0078 207.523 32.2031 207.008 32.5938C206.5 32.9844 206.109 33.543 205.836 34.2695C205.57 34.9883 205.438 35.832 205.438 36.8008C205.438 37.8164 205.586 38.6836 205.883 39.4023C206.188 40.1133 206.605 40.6523 207.137 41.0195C207.668 41.3789 208.281 41.5586 208.977 41.5586C209.727 41.5586 210.371 41.3711 210.91 40.9961C211.449 40.6211 211.859 40.0898 212.141 39.4023C212.422 38.707 212.562 37.8945 212.562 36.9648C212.562 35.9336 212.41 35.0469 212.105 34.3047C211.801 33.5625 211.367 32.9961 210.805 32.6055C210.25 32.207 209.598 32.0078 208.848 32.0078ZM231.828 27.4727C230.633 27.4727 229.617 27.7656 228.781 28.3516C227.945 28.9297 227.312 29.7305 226.883 30.7539C226.453 31.7773 226.238 32.9531 226.238 34.2812C226.238 35.7266 226.453 36.9805 226.883 38.043C227.312 39.1055 227.941 39.9219 228.77 40.4922C229.598 41.0625 230.594 41.3477 231.758 41.3477C233.086 41.3477 234.18 40.9805 235.039 40.2461C235.906 39.5039 236.508 38.4297 236.844 37.0234L239.059 37.5508C238.793 38.7383 238.324 39.7656 237.652 40.6328C236.988 41.4922 236.156 42.1523 235.156 42.6133C234.164 43.0664 233.059 43.293 231.84 43.293C230.184 43.293 228.758 42.9336 227.562 42.2148C226.375 41.4961 225.465 40.4648 224.832 39.1211C224.199 37.7695 223.883 36.1602 223.883 34.293C223.883 32.5117 224.219 30.9609 224.891 29.6406C225.57 28.3125 226.512 27.2969 227.715 26.5938C228.926 25.8828 230.305 25.5273 231.852 25.5273C233.641 25.5273 235.125 25.957 236.305 26.8164C237.492 27.668 238.312 28.9102 238.766 30.543L236.539 31.0703C236.18 29.8594 235.609 28.957 234.828 28.3633C234.047 27.7695 233.047 27.4727 231.828 27.4727ZM251.598 43H249.395C249.27 42.7344 249.184 42.5195 249.137 42.3555C249.09 42.1914 249.031 41.8945 248.961 41.4648C248.359 42.1055 247.723 42.5703 247.051 42.8594C246.379 43.1484 245.609 43.293 244.742 43.293C243.961 43.293 243.27 43.1445 242.668 42.8477C242.074 42.543 241.613 42.1211 241.285 41.582C240.965 41.0352 240.805 40.4102 240.805 39.707C240.805 38.6367 241.152 37.7852 241.848 37.1523C242.543 36.5195 243.688 36.082 245.281 35.8398C246.938 35.5898 248.117 35.3516 248.82 35.125V34.7969C248.82 34.1016 248.73 33.5547 248.551 33.1562C248.371 32.75 248.082 32.457 247.684 32.2773C247.293 32.0977 246.762 32.0078 246.09 32.0078C245.246 32.0078 244.578 32.1992 244.086 32.582C243.602 32.9648 243.281 33.5664 243.125 34.3867L241.062 34.0703C241.312 32.8125 241.871 31.8672 242.738 31.2344C243.613 30.6016 244.77 30.2852 246.207 30.2852C247.309 30.2852 248.203 30.4258 248.891 30.707C249.578 30.9805 250.09 31.4336 250.426 32.0664C250.762 32.6914 250.93 33.5352 250.93 34.5977V39.0625C250.93 39.8359 250.945 40.4336 250.977 40.8555C251.016 41.2773 251.078 41.6406 251.164 41.9453C251.258 42.25 251.402 42.6016 251.598 43ZM245.375 37.6094C244.539 37.7578 243.926 38.0039 243.535 38.3477C243.152 38.6914 242.961 39.1445 242.961 39.707C242.961 40.3086 243.152 40.7812 243.535 41.125C243.926 41.4609 244.484 41.6289 245.211 41.6289C245.82 41.6289 246.457 41.4336 247.121 41.043C247.582 40.7695 247.93 40.4766 248.164 40.1641C248.406 39.8438 248.574 39.457 248.668 39.0039C248.77 38.5508 248.82 37.9609 248.82 37.2344V36.7891C248.633 36.875 248.207 36.9961 247.543 37.1523C246.887 37.3086 246.164 37.4609 245.375 37.6094ZM256.262 43H254.152V25.8203H256.262V43ZM264.688 41.5586C265.484 41.5586 266.172 41.3242 266.75 40.8555C267.336 40.3867 267.742 39.7656 267.969 38.9922L270.031 39.3086C269.68 40.5664 269.02 41.5469 268.051 42.25C267.09 42.9453 265.934 43.293 264.582 43.293C263.395 43.293 262.359 43.0312 261.477 42.5078C260.602 41.9844 259.926 41.2422 259.449 40.2812C258.973 39.3125 258.734 38.1797 258.734 36.8828C258.734 35.5469 258.969 34.3828 259.438 33.3906C259.906 32.3984 260.578 31.6328 261.453 31.0938C262.336 30.5547 263.371 30.2852 264.559 30.2852C265.707 30.2852 266.707 30.543 267.559 31.0586C268.41 31.5664 269.066 32.3164 269.527 33.3086C269.988 34.3008 270.219 35.4922 270.219 36.8828V37.3164H260.914C260.961 38.207 261.145 38.9727 261.465 39.6133C261.785 40.2461 262.219 40.7305 262.766 41.0664C263.32 41.3945 263.961 41.5586 264.688 41.5586ZM264.535 32.0078C263.91 32.0078 263.348 32.1562 262.848 32.4531C262.348 32.75 261.934 33.168 261.605 33.707C261.285 34.2461 261.078 34.8711 260.984 35.582H267.992C267.867 34.4336 267.504 33.5508 266.902 32.9336C266.309 32.3164 265.52 32.0078 264.535 32.0078ZM280.695 43V34.8672C280.695 33.9609 280.469 33.2734 280.016 32.8047C279.562 32.3359 278.922 32.1016 278.094 32.1016C277.047 32.1016 276.23 32.418 275.645 33.0508C275.066 33.6836 274.777 34.6914 274.777 36.0742V43H272.668V30.5664H274.637V32.3008C275.051 31.6758 275.586 31.1836 276.242 30.8242C276.906 30.4648 277.641 30.2852 278.445 30.2852C279.883 30.2852 280.969 30.6562 281.703 31.3984C282.438 32.1406 282.805 33.2031 282.805 34.5859V43H280.695ZM296.492 43H294.523V41.418H294.477C294.102 41.9883 293.578 42.4453 292.906 42.7891C292.234 43.125 291.531 43.293 290.797 43.293C289.719 43.293 288.758 43.0234 287.914 42.4844C287.07 41.9375 286.414 41.1719 285.945 40.1875C285.477 39.2031 285.242 38.0703 285.242 36.7891C285.242 35.4609 285.461 34.3086 285.898 33.332C286.336 32.3555 286.957 31.6055 287.762 31.082C288.574 30.5508 289.523 30.2852 290.609 30.2852C291.414 30.2852 292.117 30.4258 292.719 30.707C293.32 30.9883 293.859 31.4141 294.336 31.9844H294.383V25.8203H296.492V43ZM290.809 32.0078C290.098 32.0078 289.484 32.2031 288.969 32.5938C288.461 32.9844 288.07 33.543 287.797 34.2695C287.531 34.9883 287.398 35.832 287.398 36.8008C287.398 37.8164 287.547 38.6836 287.844 39.4023C288.148 40.1133 288.566 40.6523 289.098 41.0195C289.629 41.3789 290.242 41.5586 290.938 41.5586C291.688 41.5586 292.332 41.3711 292.871 40.9961C293.41 40.6211 293.82 40.0898 294.102 39.4023C294.383 38.707 294.523 37.8945 294.523 36.9648C294.523 35.9336 294.371 35.0469 294.066 34.3047C293.762 33.5625 293.328 32.9961 292.766 32.6055C292.211 32.207 291.559 32.0078 290.809 32.0078ZM309.77 43H307.566C307.441 42.7344 307.355 42.5195 307.309 42.3555C307.262 42.1914 307.203 41.8945 307.133 41.4648C306.531 42.1055 305.895 42.5703 305.223 42.8594C304.551 43.1484 303.781 43.293 302.914 43.293C302.133 43.293 301.441 43.1445 300.84 42.8477C300.246 42.543 299.785 42.1211 299.457 41.582C299.137 41.0352 298.977 40.4102 298.977 39.707C298.977 38.6367 299.324 37.7852 300.02 37.1523C300.715 36.5195 301.859 36.082 303.453 35.8398C305.109 35.5898 306.289 35.3516 306.992 35.125V34.7969C306.992 34.1016 306.902 33.5547 306.723 33.1562C306.543 32.75 306.254 32.457 305.855 32.2773C305.465 32.0977 304.934 32.0078 304.262 32.0078C303.418 32.0078 302.75 32.1992 302.258 32.582C301.773 32.9648 301.453 33.5664 301.297 34.3867L299.234 34.0703C299.484 32.8125 300.043 31.8672 300.91 31.2344C301.785 30.6016 302.941 30.2852 304.379 30.2852C305.48 30.2852 306.375 30.4258 307.062 30.707C307.75 30.9805 308.262 31.4336 308.598 32.0664C308.934 32.6914 309.102 33.5352 309.102 34.5977V39.0625C309.102 39.8359 309.117 40.4336 309.148 40.8555C309.188 41.2773 309.25 41.6406 309.336 41.9453C309.43 42.25 309.574 42.6016 309.77 43ZM303.547 37.6094C302.711 37.7578 302.098 38.0039 301.707 38.3477C301.324 38.6914 301.133 39.1445 301.133 39.707C301.133 40.3086 301.324 40.7812 301.707 41.125C302.098 41.4609 302.656 41.6289 303.383 41.6289C303.992 41.6289 304.629 41.4336 305.293 41.043C305.754 40.7695 306.102 40.4766 306.336 40.1641C306.578 39.8438 306.746 39.457 306.84 39.0039C306.941 38.5508 306.992 37.9609 306.992 37.2344V36.7891C306.805 36.875 306.379 36.9961 305.715 37.1523C305.059 37.3086 304.336 37.4609 303.547 37.6094ZM317.199 32.4414C316.301 32.4414 315.613 32.7891 315.137 33.4844C314.668 34.1719 314.434 35.1328 314.434 36.3672V43H312.324V30.5664H314.293V32.4414C314.754 31.6602 315.223 31.1055 315.699 30.7773C316.176 30.4492 316.75 30.2852 317.422 30.2852C317.797 30.2852 318.145 30.332 318.465 30.4258C318.793 30.5117 319.125 30.6562 319.461 30.8594L318.734 32.8047C318.281 32.5625 317.77 32.4414 317.199 32.4414Z" fill="white"/>
<defs>
<filter id="filter0_d_159_76" x="105" y="0" width="259" height="76" filterUnits="userSpaceOnUse" color-interpolation-filters="sRGB">
<feFlood flood-opacity="0" result="BackgroundImageFix"/>
<feColorMatrix in="SourceAlpha" type="matrix" values="0 0 0 0 0 0 0 0 0 0 0 0 0 0 0 0 0 0 127 0" result="hardAlpha"/>
<feOffset dy="4"/>
<feGaussianBlur stdDeviation="2"/>
<feComposite in2="hardAlpha" operator="out"/>
<feColorMatrix type="matrix" values="0 0 0 0 0 0 0 0 0 0 0 0 0 0 0 0 0 0 0.25 0"/>
<feBlend mode="normal" in2="BackgroundImageFix" result="effect1_dropShadow_159_76"/>
<feBlend mode="normal" in="SourceGraphic" in2="effect1_dropShadow_159_76" result="shape"/>
</filter>
<linearGradient id="paint0_linear_159_76" x1="109" y1="34" x2="360" y2="34" gradientUnits="userSpaceOnUse">
<stop stop-color="#F58B37"/>
<stop offset="1" stop-color="#74D1E6"/>
</linearGradient>
</defs>
</svg>
